<svg width="222" height="67" viewBox="0 0 222 67" fill="none" xmlns="http://www.w3.org/2000/svg">
<path d="M32.3182 27.1615H28.0909C27.8409 25.9456 27.4034 24.8774 26.7784 23.957C26.1648 23.0365 25.4148 22.2638 24.5284 21.6388C23.6534 21.0024 22.6818 20.5251 21.6136 20.207C20.5455 19.8888 19.4318 19.7297 18.2727 19.7297C16.1591 19.7297 14.2443 20.2638 12.5284 21.332C10.8239 22.4001 9.46591 23.974 8.45455 26.0535C7.45455 28.1331 6.95455 30.6842 6.95455 33.707C6.95455 36.7297 7.45455 39.2808 8.45455 41.3604C9.46591 43.4399 10.8239 45.0138 12.5284 46.082C14.2443 47.1501 16.1591 47.6842 18.2727 47.6842C19.4318 47.6842 20.5455 47.5251 21.6136 47.207C22.6818 46.8888 23.6534 46.4172 24.5284 45.7922C25.4148 45.1558 26.1648 44.3774 26.7784 43.457C27.4034 42.5251 27.8409 41.457 28.0909 40.2524H32.3182C32 42.0365 31.4205 43.6331 30.5795 45.0422C29.7386 46.4513 28.6932 47.6501 27.4432 48.6388C26.1932 49.616 24.7898 50.3604 23.233 50.8717C21.6875 51.3831 20.0341 51.6388 18.2727 51.6388C15.2955 51.6388 12.6477 50.9115 10.3295 49.457C8.01136 48.0024 6.1875 45.9342 4.85795 43.2524C3.52841 40.5706 2.86364 37.3888 2.86364 33.707C2.86364 30.0251 3.52841 26.8433 4.85795 24.1615C6.1875 21.4797 8.01136 19.4115 10.3295 17.957C12.6477 16.5024 15.2955 15.7751 18.2727 15.7751C20.0341 15.7751 21.6875 16.0308 23.233 16.5422C24.7898 17.0535 26.1932 17.8035 27.4432 18.7922C28.6932 19.7695 29.7386 20.9626 30.5795 22.3717C31.4205 23.7695 32 25.366 32.3182 27.1615ZM49.2401 51.707C46.8764 51.707 44.8026 51.1445 43.0185 50.0195C41.2457 48.8945 39.8594 47.3206 38.8594 45.2979C37.8707 43.2751 37.3764 40.9115 37.3764 38.207C37.3764 35.4797 37.8707 33.099 38.8594 31.0649C39.8594 29.0308 41.2457 27.4513 43.0185 26.3263C44.8026 25.2013 46.8764 24.6388 49.2401 24.6388C51.6037 24.6388 53.6719 25.2013 55.4446 26.3263C57.2287 27.4513 58.6151 29.0308 59.6037 31.0649C60.6037 33.099 61.1037 35.4797 61.1037 38.207C61.1037 40.9115 60.6037 43.2751 59.6037 45.2979C58.6151 47.3206 57.2287 48.8945 55.4446 50.0195C53.6719 51.1445 51.6037 51.707 49.2401 51.707ZM49.2401 48.0933C51.0355 48.0933 52.5128 47.6331 53.6719 46.7126C54.831 45.7922 55.6889 44.582 56.2457 43.082C56.8026 41.582 57.081 39.957 57.081 38.207C57.081 36.457 56.8026 34.8263 56.2457 33.3149C55.6889 31.8035 54.831 30.582 53.6719 29.6501C52.5128 28.7183 51.0355 28.2524 49.2401 28.2524C47.4446 28.2524 45.9673 28.7183 44.8082 29.6501C43.6491 30.582 42.7912 31.8035 42.2344 33.3149C41.6776 34.8263 41.3991 36.457 41.3991 38.207C41.3991 39.957 41.6776 41.582 42.2344 43.082C42.7912 44.582 43.6491 45.7922 44.8082 46.7126C45.9673 47.6331 47.4446 48.0933 49.2401 48.0933ZM95.8807 27.1615H91.6534C91.4034 25.9456 90.9659 24.8774 90.3409 23.957C89.7273 23.0365 88.9773 22.2638 88.0909 21.6388C87.2159 21.0024 86.2443 20.5251 85.1761 20.207C84.108 19.8888 82.9943 19.7297 81.8352 19.7297C79.7216 19.7297 77.8068 20.2638 76.0909 21.332C74.3864 22.4001 73.0284 23.974 72.017 26.0535C71.017 28.1331 70.517 30.6842 70.517 33.707C70.517 36.7297 71.017 39.2808 72.017 41.3604C73.0284 43.4399 74.3864 45.0138 76.0909 46.082C77.8068 47.1501 79.7216 47.6842 81.8352 47.6842C82.9943 47.6842 84.108 47.5251 85.1761 47.207C86.2443 46.8888 87.2159 46.4172 88.0909 45.7922C88.9773 45.1558 89.7273 44.3774 90.3409 43.457C90.9659 42.5251 91.4034 41.457 91.6534 40.2524H95.8807C95.5625 42.0365 94.983 43.6331 94.142 45.0422C93.3011 46.4513 92.2557 47.6501 91.0057 48.6388C89.7557 49.616 88.3523 50.3604 86.7955 50.8717C85.25 51.3831 83.5966 51.6388 81.8352 51.6388C78.858 51.6388 76.2102 50.9115 73.892 49.457C71.5739 48.0024 69.75 45.9342 68.4205 43.2524C67.0909 40.5706 66.4261 37.3888 66.4261 33.707C66.4261 30.0251 67.0909 26.8433 68.4205 24.1615C69.75 21.4797 71.5739 19.4115 73.892 17.957C76.2102 16.5024 78.858 15.7751 81.8352 15.7751C83.5966 15.7751 85.25 16.0308 86.7955 16.5422C88.3523 17.0535 89.7557 17.8035 91.0057 18.7922C92.2557 19.7695 93.3011 20.9626 94.142 22.3717C94.983 23.7695 95.5625 25.366 95.8807 27.1615ZM102.166 51.1615V24.9797H106.053V28.9342H106.325C106.803 27.6388 107.666 26.5876 108.916 25.7808C110.166 24.974 111.575 24.5706 113.143 24.5706C113.439 24.5706 113.808 24.5763 114.251 24.5876C114.695 24.599 115.03 24.616 115.257 24.6388V28.7297C115.121 28.6956 114.808 28.6445 114.32 28.5763C113.842 28.4967 113.337 28.457 112.803 28.457C111.53 28.457 110.393 28.724 109.393 29.2581C108.405 29.7808 107.621 30.5081 107.041 31.4399C106.473 32.3604 106.189 33.4115 106.189 34.5933V51.1615H102.166ZM130.206 51.707C127.683 51.707 125.507 51.1501 123.678 50.0365C121.859 48.9115 120.456 47.3433 119.467 45.332C118.49 43.3092 118.001 40.957 118.001 38.2751C118.001 35.5933 118.49 33.2297 119.467 31.1842C120.456 29.1274 121.831 27.5251 123.592 26.3774C125.365 25.2183 127.433 24.6388 129.797 24.6388C131.161 24.6388 132.507 24.866 133.837 25.3206C135.166 25.7751 136.376 26.5138 137.467 27.5365C138.558 28.5479 139.428 29.8888 140.075 31.5592C140.723 33.2297 141.047 35.2865 141.047 37.7297V39.4342H120.865V35.957H136.956C136.956 34.4797 136.661 33.1615 136.07 32.0024C135.49 30.8433 134.661 29.9285 133.581 29.2581C132.513 28.5876 131.251 28.2524 129.797 28.2524C128.195 28.2524 126.808 28.6501 125.638 29.4456C124.479 30.2297 123.587 31.2524 122.962 32.5138C122.337 33.7751 122.024 35.1274 122.024 36.5706V38.8888C122.024 40.866 122.365 42.5422 123.047 43.9172C123.74 45.2808 124.7 46.3206 125.928 47.0365C127.155 47.741 128.581 48.0933 130.206 48.0933C131.263 48.0933 132.217 47.9456 133.07 47.6501C133.933 47.3433 134.678 46.8888 135.303 46.2865C135.928 45.6729 136.411 44.9115 136.751 44.0024L140.638 45.0933C140.229 46.4115 139.541 47.5706 138.575 48.5706C137.609 49.5592 136.416 50.332 134.996 50.8888C133.575 51.4342 131.979 51.707 130.206 51.707ZM157.053 51.707C154.871 51.707 152.945 51.1558 151.274 50.0535C149.604 48.9399 148.297 47.3717 147.354 45.349C146.411 43.3149 145.939 40.9115 145.939 38.1388C145.939 35.3888 146.411 33.0024 147.354 30.9797C148.297 28.957 149.609 27.3945 151.291 26.2922C152.973 25.1899 154.916 24.6388 157.121 24.6388C158.825 24.6388 160.172 24.9229 161.161 25.491C162.161 26.0479 162.922 26.6842 163.445 27.4001C163.979 28.1047 164.393 28.6842 164.689 29.1388H165.03V16.2524H169.053V51.1615H165.166V47.1388H164.689C164.393 47.616 163.973 48.2183 163.428 48.9456C162.882 49.6615 162.104 50.3035 161.092 50.8717C160.081 51.4285 158.734 51.707 157.053 51.707ZM157.598 48.0933C159.212 48.0933 160.575 47.6729 161.689 46.832C162.803 45.9797 163.649 44.8035 164.229 43.3035C164.808 41.7922 165.098 40.0479 165.098 38.0706C165.098 36.116 164.814 34.4058 164.246 32.9399C163.678 31.4626 162.837 30.3149 161.723 29.4967C160.609 28.6672 159.234 28.2524 157.598 28.2524C155.893 28.2524 154.473 28.6899 153.337 29.5649C152.212 30.4285 151.365 31.6047 150.797 33.0933C150.24 34.5706 149.962 36.2297 149.962 38.0706C149.962 39.9342 150.246 41.6274 150.814 43.1501C151.393 44.6615 152.246 45.866 153.371 46.7638C154.507 47.6501 155.916 48.0933 157.598 48.0933Z" fill="#0E1728"/>
<path d="M193 33.1615C190 81.6614 11.5008 49.1615 35.0007 54.6615C58.5005 60.1615 215 87.1615 221.5 33.1616C202.5 -19.8385 25.0018 4.16154 144.002 14.1615C-9.49827 23.4676 196.088 -16.7431 193 33.1615Z" fill="#0E1728"/>
</svg>
